<mxfile host="app.diagrams.net" agent="Mozilla/5.0 (X11; Ubuntu; Linux x86_64; rv:135.0) Gecko/20100101 Firefox/135.0" version="26.0.16">
  <diagram name="Seite-1" id="S_46Gv1D1DzW3LIhSpF1">
    <mxGraphModel dx="1434" dy="1947" grid="1" gridSize="10" guides="1" tooltips="1" connect="1" arrows="1" fold="1" page="1" pageScale="1" pageWidth="827" pageHeight="1169" math="0" shadow="0">
      <root>
        <mxCell id="0" />
        <mxCell id="1" parent="0" />
        <mxCell id="hvsbu61VVGCGAHL88avm-2" value="" style="whiteSpace=wrap;html=1;aspect=fixed;dashed=1;dashPattern=8 8;" vertex="1" parent="1">
          <mxGeometry x="160" y="120" width="340" height="340" as="geometry" />
        </mxCell>
        <mxCell id="hvsbu61VVGCGAHL88avm-3" value="VIEW" style="text;html=1;align=center;verticalAlign=middle;resizable=0;points=[];autosize=1;strokeColor=none;fillColor=none;" vertex="1" parent="1">
          <mxGeometry x="180" y="120" width="50" height="30" as="geometry" />
        </mxCell>
        <mxCell id="hvsbu61VVGCGAHL88avm-4" value="DrawingOpeGLWidget" style="swimlane;fontStyle=0;childLayout=stackLayout;horizontal=1;startSize=30;horizontalStack=0;resizeParent=1;resizeParentMax=0;resizeLast=0;collapsible=1;marginBottom=0;whiteSpace=wrap;html=1;" vertex="1" parent="1">
          <mxGeometry x="180" y="190" width="140" height="90" as="geometry" />
        </mxCell>
        <mxCell id="hvsbu61VVGCGAHL88avm-5" value="*Model (&lt;u&gt;Model&lt;/u&gt;)" style="text;strokeColor=none;fillColor=none;align=left;verticalAlign=middle;spacingLeft=4;spacingRight=4;overflow=hidden;points=[[0,0.5],[1,0.5]];portConstraint=eastwest;rotatable=0;whiteSpace=wrap;html=1;" vertex="1" parent="hvsbu61VVGCGAHL88avm-4">
          <mxGeometry y="30" width="140" height="30" as="geometry" />
        </mxCell>
        <mxCell id="hvsbu61VVGCGAHL88avm-6" value="*ModeController (&lt;u&gt;Controller&lt;/u&gt;)" style="text;strokeColor=none;fillColor=none;align=left;verticalAlign=middle;spacingLeft=4;spacingRight=4;overflow=hidden;points=[[0,0.5],[1,0.5]];portConstraint=eastwest;rotatable=0;whiteSpace=wrap;html=1;" vertex="1" parent="hvsbu61VVGCGAHL88avm-4">
          <mxGeometry y="60" width="140" height="30" as="geometry" />
        </mxCell>
        <mxCell id="hvsbu61VVGCGAHL88avm-12" value="" style="whiteSpace=wrap;html=1;aspect=fixed;dashed=1;dashPattern=8 8;" vertex="1" parent="1">
          <mxGeometry x="670" y="-20" width="340" height="340" as="geometry" />
        </mxCell>
        <mxCell id="hvsbu61VVGCGAHL88avm-13" value="MODEL" style="text;html=1;align=center;verticalAlign=middle;resizable=0;points=[];autosize=1;strokeColor=none;fillColor=none;" vertex="1" parent="1">
          <mxGeometry x="680" y="-20" width="70" height="30" as="geometry" />
        </mxCell>
        <mxCell id="hvsbu61VVGCGAHL88avm-14" value="" style="whiteSpace=wrap;html=1;aspect=fixed;dashed=1;dashPattern=8 8;" vertex="1" parent="1">
          <mxGeometry x="670" y="415" width="405" height="405" as="geometry" />
        </mxCell>
        <mxCell id="hvsbu61VVGCGAHL88avm-15" value="CONTROLLER" style="text;html=1;align=center;verticalAlign=middle;resizable=0;points=[];autosize=1;strokeColor=none;fillColor=none;" vertex="1" parent="1">
          <mxGeometry x="660" y="415" width="110" height="30" as="geometry" />
        </mxCell>
        <mxCell id="hvsbu61VVGCGAHL88avm-16" value="Controller" style="swimlane;fontStyle=0;childLayout=stackLayout;horizontal=1;startSize=30;horizontalStack=0;resizeParent=1;resizeParentMax=0;resizeLast=0;collapsible=1;marginBottom=0;whiteSpace=wrap;html=1;" vertex="1" parent="1">
          <mxGeometry x="700" y="460" width="200" height="120" as="geometry" />
        </mxCell>
        <mxCell id="hvsbu61VVGCGAHL88avm-17" value="Model (&lt;u&gt;Model&lt;/u&gt;)" style="text;strokeColor=none;fillColor=none;align=left;verticalAlign=middle;spacingLeft=4;spacingRight=4;overflow=hidden;points=[[0,0.5],[1,0.5]];portConstraint=eastwest;rotatable=0;whiteSpace=wrap;html=1;" vertex="1" parent="hvsbu61VVGCGAHL88avm-16">
          <mxGeometry y="30" width="200" height="30" as="geometry" />
        </mxCell>
        <mxCell id="hvsbu61VVGCGAHL88avm-18" value="*View (&lt;u&gt;View&lt;/u&gt;)" style="text;strokeColor=none;fillColor=none;align=left;verticalAlign=middle;spacingLeft=4;spacingRight=4;overflow=hidden;points=[[0,0.5],[1,0.5]];portConstraint=eastwest;rotatable=0;whiteSpace=wrap;html=1;" vertex="1" parent="hvsbu61VVGCGAHL88avm-16">
          <mxGeometry y="60" width="200" height="30" as="geometry" />
        </mxCell>
        <mxCell id="hvsbu61VVGCGAHL88avm-19" value="*ModeController (&lt;u&gt;Controller&lt;/u&gt;)" style="text;strokeColor=none;fillColor=none;align=left;verticalAlign=middle;spacingLeft=4;spacingRight=4;overflow=hidden;points=[[0,0.5],[1,0.5]];portConstraint=eastwest;rotatable=0;whiteSpace=wrap;html=1;" vertex="1" parent="hvsbu61VVGCGAHL88avm-16">
          <mxGeometry y="90" width="200" height="30" as="geometry" />
        </mxCell>
        <mxCell id="hvsbu61VVGCGAHL88avm-20" value="ModeController" style="swimlane;fontStyle=0;childLayout=stackLayout;horizontal=1;startSize=30;horizontalStack=0;resizeParent=1;resizeParentMax=0;resizeLast=0;collapsible=1;marginBottom=0;whiteSpace=wrap;html=1;" vertex="1" parent="1">
          <mxGeometry x="700" y="635" width="140" height="60" as="geometry" />
        </mxCell>
        <mxCell id="hvsbu61VVGCGAHL88avm-21" value="Modes" style="text;strokeColor=none;fillColor=none;align=left;verticalAlign=middle;spacingLeft=4;spacingRight=4;overflow=hidden;points=[[0,0.5],[1,0.5]];portConstraint=eastwest;rotatable=0;whiteSpace=wrap;html=1;" vertex="1" parent="hvsbu61VVGCGAHL88avm-20">
          <mxGeometry y="30" width="140" height="30" as="geometry" />
        </mxCell>
        <mxCell id="hvsbu61VVGCGAHL88avm-24" value="Model" style="swimlane;fontStyle=0;childLayout=stackLayout;horizontal=1;startSize=30;horizontalStack=0;resizeParent=1;resizeParentMax=0;resizeLast=0;collapsible=1;marginBottom=0;whiteSpace=wrap;html=1;" vertex="1" parent="1">
          <mxGeometry x="700" y="20" width="140" height="60" as="geometry" />
        </mxCell>
        <mxCell id="hvsbu61VVGCGAHL88avm-25" value="Data Structures" style="text;strokeColor=none;fillColor=none;align=left;verticalAlign=middle;spacingLeft=4;spacingRight=4;overflow=hidden;points=[[0,0.5],[1,0.5]];portConstraint=eastwest;rotatable=0;whiteSpace=wrap;html=1;" vertex="1" parent="hvsbu61VVGCGAHL88avm-24">
          <mxGeometry y="30" width="140" height="30" as="geometry" />
        </mxCell>
        <mxCell id="hvsbu61VVGCGAHL88avm-28" value="Mode n" style="swimlane;fontStyle=0;childLayout=stackLayout;horizontal=1;startSize=30;horizontalStack=0;resizeParent=1;resizeParentMax=0;resizeLast=0;collapsible=1;marginBottom=0;whiteSpace=wrap;html=1;" vertex="1" parent="1">
          <mxGeometry x="880" y="635" width="140" height="60" as="geometry" />
        </mxCell>
        <mxCell id="hvsbu61VVGCGAHL88avm-30" value="*Controller (&lt;u&gt;Controller&lt;/u&gt;)" style="text;strokeColor=none;fillColor=none;align=left;verticalAlign=middle;spacingLeft=4;spacingRight=4;overflow=hidden;points=[[0,0.5],[1,0.5]];portConstraint=eastwest;rotatable=0;whiteSpace=wrap;html=1;" vertex="1" parent="hvsbu61VVGCGAHL88avm-28">
          <mxGeometry y="30" width="140" height="30" as="geometry" />
        </mxCell>
        <mxCell id="hvsbu61VVGCGAHL88avm-34" style="edgeStyle=orthogonalEdgeStyle;rounded=0;orthogonalLoop=1;jettySize=auto;html=1;exitX=1;exitY=0.75;exitDx=0;exitDy=0;entryX=0.007;entryY=0.067;entryDx=0;entryDy=0;entryPerimeter=0;" edge="1" parent="1" source="hvsbu61VVGCGAHL88avm-4" target="hvsbu61VVGCGAHL88avm-21">
          <mxGeometry relative="1" as="geometry">
            <Array as="points">
              <mxPoint x="510" y="258" />
              <mxPoint x="510" y="660" />
              <mxPoint x="701" y="660" />
            </Array>
          </mxGeometry>
        </mxCell>
        <mxCell id="hvsbu61VVGCGAHL88avm-32" style="edgeStyle=orthogonalEdgeStyle;rounded=0;orthogonalLoop=1;jettySize=auto;html=1;exitX=1;exitY=0.5;exitDx=0;exitDy=0;entryX=0;entryY=0.25;entryDx=0;entryDy=0;" edge="1" parent="1" source="hvsbu61VVGCGAHL88avm-4" target="hvsbu61VVGCGAHL88avm-24">
          <mxGeometry relative="1" as="geometry" />
        </mxCell>
        <mxCell id="hvsbu61VVGCGAHL88avm-36" style="edgeStyle=orthogonalEdgeStyle;rounded=0;orthogonalLoop=1;jettySize=auto;html=1;exitX=0;exitY=0.5;exitDx=0;exitDy=0;entryX=-0.007;entryY=0.1;entryDx=0;entryDy=0;entryPerimeter=0;" edge="1" parent="1" source="hvsbu61VVGCGAHL88avm-18" target="hvsbu61VVGCGAHL88avm-5">
          <mxGeometry relative="1" as="geometry">
            <Array as="points">
              <mxPoint x="50" y="535" />
              <mxPoint x="50" y="210" />
              <mxPoint x="180" y="210" />
            </Array>
          </mxGeometry>
        </mxCell>
        <mxCell id="hvsbu61VVGCGAHL88avm-35" style="edgeStyle=orthogonalEdgeStyle;rounded=0;orthogonalLoop=1;jettySize=auto;html=1;exitX=0;exitY=0.5;exitDx=0;exitDy=0;entryX=0;entryY=0.25;entryDx=0;entryDy=0;" edge="1" parent="1" source="hvsbu61VVGCGAHL88avm-17" target="hvsbu61VVGCGAHL88avm-24">
          <mxGeometry relative="1" as="geometry">
            <mxPoint x="620" y="40" as="targetPoint" />
            <Array as="points">
              <mxPoint x="580" y="505" />
              <mxPoint x="580" y="35" />
            </Array>
          </mxGeometry>
        </mxCell>
        <mxCell id="hvsbu61VVGCGAHL88avm-39" style="edgeStyle=orthogonalEdgeStyle;rounded=0;orthogonalLoop=1;jettySize=auto;html=1;exitX=0;exitY=0.5;exitDx=0;exitDy=0;entryX=0.007;entryY=0.2;entryDx=0;entryDy=0;entryPerimeter=0;" edge="1" parent="1" source="hvsbu61VVGCGAHL88avm-19" target="hvsbu61VVGCGAHL88avm-20">
          <mxGeometry relative="1" as="geometry" />
        </mxCell>
        <mxCell id="hvsbu61VVGCGAHL88avm-41" style="edgeStyle=orthogonalEdgeStyle;rounded=0;orthogonalLoop=1;jettySize=auto;html=1;exitX=1;exitY=0.5;exitDx=0;exitDy=0;entryX=0.029;entryY=0.092;entryDx=0;entryDy=0;entryPerimeter=0;" edge="1" parent="1" source="hvsbu61VVGCGAHL88avm-21" target="hvsbu61VVGCGAHL88avm-28">
          <mxGeometry relative="1" as="geometry" />
        </mxCell>
        <mxCell id="hvsbu61VVGCGAHL88avm-45" value="mainWindow " style="swimlane;fontStyle=0;childLayout=stackLayout;horizontal=1;startSize=30;horizontalStack=0;resizeParent=1;resizeParentMax=0;resizeLast=0;collapsible=1;marginBottom=0;whiteSpace=wrap;html=1;" vertex="1" parent="1">
          <mxGeometry x="180" y="300" width="140" height="120" as="geometry" />
        </mxCell>
        <mxCell id="hvsbu61VVGCGAHL88avm-46" value="*Controller (&lt;u&gt;Controller&lt;/u&gt;)" style="text;strokeColor=none;fillColor=none;align=left;verticalAlign=middle;spacingLeft=4;spacingRight=4;overflow=hidden;points=[[0,0.5],[1,0.5]];portConstraint=eastwest;rotatable=0;whiteSpace=wrap;html=1;" vertex="1" parent="hvsbu61VVGCGAHL88avm-45">
          <mxGeometry y="30" width="140" height="30" as="geometry" />
        </mxCell>
        <mxCell id="hvsbu61VVGCGAHL88avm-47" value="Item 2" style="text;strokeColor=none;fillColor=none;align=left;verticalAlign=middle;spacingLeft=4;spacingRight=4;overflow=hidden;points=[[0,0.5],[1,0.5]];portConstraint=eastwest;rotatable=0;whiteSpace=wrap;html=1;" vertex="1" parent="hvsbu61VVGCGAHL88avm-45">
          <mxGeometry y="60" width="140" height="30" as="geometry" />
        </mxCell>
        <mxCell id="hvsbu61VVGCGAHL88avm-48" value="Item 3" style="text;strokeColor=none;fillColor=none;align=left;verticalAlign=middle;spacingLeft=4;spacingRight=4;overflow=hidden;points=[[0,0.5],[1,0.5]];portConstraint=eastwest;rotatable=0;whiteSpace=wrap;html=1;" vertex="1" parent="hvsbu61VVGCGAHL88avm-45">
          <mxGeometry y="90" width="140" height="30" as="geometry" />
        </mxCell>
        <mxCell id="hvsbu61VVGCGAHL88avm-49" style="edgeStyle=orthogonalEdgeStyle;rounded=0;orthogonalLoop=1;jettySize=auto;html=1;exitX=1;exitY=0.5;exitDx=0;exitDy=0;entryX=-0.005;entryY=0.067;entryDx=0;entryDy=0;entryPerimeter=0;" edge="1" parent="1" source="hvsbu61VVGCGAHL88avm-46" target="hvsbu61VVGCGAHL88avm-17">
          <mxGeometry relative="1" as="geometry">
            <Array as="points">
              <mxPoint x="510" y="345" />
              <mxPoint x="510" y="480" />
              <mxPoint x="699" y="480" />
            </Array>
          </mxGeometry>
        </mxCell>
        <mxCell id="hvsbu61VVGCGAHL88avm-50" style="edgeStyle=orthogonalEdgeStyle;rounded=0;orthogonalLoop=1;jettySize=auto;html=1;exitX=1;exitY=0.75;exitDx=0;exitDy=0;entryX=1.005;entryY=0.117;entryDx=0;entryDy=0;entryPerimeter=0;" edge="1" parent="1" source="hvsbu61VVGCGAHL88avm-28" target="hvsbu61VVGCGAHL88avm-16">
          <mxGeometry relative="1" as="geometry" />
        </mxCell>
      </root>
    </mxGraphModel>
  </diagram>
</mxfile>
